<svg xmlns="http://www.w3.org/2000/svg" xmlns:xlink="http://www.w3.org/1999/xlink" version="1.0" x="0" y="0" width="2400" height="658.1682137688653" viewBox="77.71039657592773 99.69079666137695 184.57920684814454 50.61840286254883" preserveAspectRatio="xMidYMid meet" color-interpolation-filters="sRGB"><g><defs><linearGradient id="92" x1="0%" y1="0%" x2="100%" y2="0%"><stop offset="0%" stop-color="#fa71cd"></stop> <stop offset="100%" stop-color="#9b59b6"></stop></linearGradient><linearGradient id="93" x1="0%" y1="0%" x2="100%" y2="0%"><stop offset="0%" stop-color="#f9d423"></stop> <stop offset="100%" stop-color="#f83600"></stop></linearGradient><linearGradient id="94" x1="0%" y1="0%" x2="100%" y2="0%"><stop offset="0%" stop-color="#0064d2"></stop> <stop offset="100%" stop-color="#1cb0f6"></stop></linearGradient><linearGradient id="95" x1="0%" y1="0%" x2="100%" y2="0%"><stop offset="0%" stop-color="#f00978"></stop> <stop offset="100%" stop-color="#3f51b1"></stop></linearGradient><linearGradient id="96" x1="0%" y1="0%" x2="100%" y2="0%"><stop offset="0%" stop-color="#7873f5"></stop> <stop offset="100%" stop-color="#ec77ab"></stop></linearGradient><linearGradient id="97" x1="0%" y1="0%" x2="100%" y2="0%"><stop offset="0%" stop-color="#f9d423"></stop> <stop offset="100%" stop-color="#e14fad"></stop></linearGradient><linearGradient id="98" x1="0%" y1="0%" x2="100%" y2="0%"><stop offset="0%" stop-color="#009efd"></stop> <stop offset="100%" stop-color="#2af598"></stop></linearGradient><linearGradient id="99" x1="0%" y1="0%" x2="100%" y2="0%"><stop offset="0%" stop-color="#ffcc00"></stop> <stop offset="100%" stop-color="#00b140"></stop></linearGradient><linearGradient id="100" x1="0%" y1="0%" x2="100%" y2="0%"><stop offset="0%" stop-color="#d51007"></stop> <stop offset="100%" stop-color="#ff8177"></stop></linearGradient><linearGradient id="102" x1="0%" y1="0%" x2="100%" y2="0%"><stop offset="0%" stop-color="#a2b6df"></stop> <stop offset="100%" stop-color="#0c3483"></stop></linearGradient><linearGradient id="103" x1="0%" y1="0%" x2="100%" y2="0%"><stop offset="0%" stop-color="#7ac5d8"></stop> <stop offset="100%" stop-color="#eea2a2"></stop></linearGradient><linearGradient id="104" x1="0%" y1="0%" x2="100%" y2="0%"><stop offset="0%" stop-color="#00ecbc"></stop> <stop offset="100%" stop-color="#007adf"></stop></linearGradient><linearGradient id="105" x1="0%" y1="0%" x2="100%" y2="0%"><stop offset="0%" stop-color="#b88746"></stop> <stop offset="100%" stop-color="#fdf5a6"></stop></linearGradient></defs><g fill="#142824" class="iconlinesvg-g iconlinesvg" transform="translate(79.52450001239777,101.50039863586426)"><g class="tp-name" transform="translate(0,0)"><g transform="translate(0, 1.7724279988178342)"><g fill="#142824" transform="scale(1)"><path d="M1.47 0L11.80-25.77L16.33-25.77L26.61 0L21.86 0L19.50-5.93L8.59-5.93L6.27 0L1.47 0ZM9.88-9.81L18.21-9.81L14.04-20.75L9.88-9.81Z" transform="translate(-1.4745033790702435, 26.31988531640385)"></path></g></g><g transform="translate(29, 1.7724279988178342)"><g fill="#142824" transform="scale(1)"><path d="M2.21 0L2.21-25.77L6.64-25.77L18.69-7.81L18.69-25.77L23.37-25.77L23.37 0L18.95 0L6.89-17.99L6.89 0L2.21 0Z" transform="translate(-2.2117550686053655, 26.31988531640385)"></path></g></g><g transform="translate(54, 1.7724279988178342)"><g fill="#142824" transform="scale(1)"><path d="M15.26 0.55Q11.21 0.55 8.07-1.09Q4.94-2.73 3.21-5.77Q1.47-8.81 1.47-12.87L1.47-12.87Q1.47-16.92 3.21-19.96Q4.94-23.00 8.07-24.66Q11.21-26.32 15.26-26.32L15.26-26.32Q20.61-26.32 24.18-23.78L24.18-23.78L24.18-19.32Q20.97-22.04 15.67-22.04L15.67-22.04Q12.83-22.04 10.69-20.92Q8.55-19.80 7.37-17.73Q6.19-15.67 6.19-12.87L6.19-12.87Q6.19-10.06 7.39-8.00Q8.59-5.93 10.73-4.81Q12.87-3.69 15.67-3.69L15.67-3.69Q18.39-3.69 20.53-4.37Q22.67-5.05 24.48-6.56L24.48-6.56L24.48-2.10Q21.09 0.55 15.26 0.55L15.26 0.55Z" transform="translate(-1.474503379070244, 26.31988531640385)"></path></g></g><g transform="translate(81, 1.7724279988178342)"><g fill="#142824" transform="scale(1)"><path d="M2.21 0L2.21-25.77L6.89-25.77L6.89-15.08L19.28-15.08L19.28-25.77L23.92-25.77L23.92 0L19.28 0L19.28-11.21L6.89-11.21L6.89 0L2.21 0Z" transform="translate(-2.211755068605366, 26.31988531640385)"></path></g></g><g transform="translate(106, 0)"><g><g fill="#1D7AF9" class="imagesvg"><rect fill="#142824" fill-opacity="0" stroke-width="2" x="0" y="0" width="30.417680081190863" height="30.417680081190863" class="image-rect"></rect> <svg viewBox="0 0 60 60" x="0" y="0" width="30.417680081190863" height="30.417680081190863" class="image-svg-svg bn" style="overflow: visible;"><g hollow-target="iconBnOutline"><g mask="url(#6a901e6f-75c3-4892-b676-2c366f97b670)"><svg xmlns="http://www.w3.org/2000/svg" viewBox="0 0 144 144" style="overflow: visible;" width="60" height="60" x="0" y="0" filtersec="colorsf5437863583" filter="url(#s31FO7n0GU-h2FONYjP8n)"><g transform="scale(1, 1) skewX(0)"><path d="M72 0c39.765 0 72 32.235 72 72s-32.235 72-72 72S0 111.765 0 72 32.235 0 72 0zm0 7C36.101 7 7 36.101 7 72s29.101 65 65 65 65-29.101 65-65S107.899 7 72 7z" fill="#000000" stroke-width="2" stroke-linejoin="round" stroke="#000000"></path></g><defs><filter id="s31FO7n0GU-h2FONYjP8n"><feColorMatrix type="matrix" values="0 0 0 0 0.11328125  0 0 0 0 0.4765625  0 0 0 0 0.97265625  0 0 0 1 0"></feColorMatrix></filter></defs></svg></g> <g filter="url(#colors5933655053)"><svg xmlns="http://www.w3.org/2000/svg" xmlns:xlink="http://www.w3.org/1999/xlink" version="1.1" x="10" y="10" viewBox="14.645915031433105 10.380071640014648 60.7098274230957 69.24693298339844" enable-background="new 0 0 90 90" xml:space="preserve" width="40" height="40" class="image-svg-icon"><g><path d="M66.839,73.542l1.256-13.523c0.033-0.354-0.384-0.65-0.706-0.5l-12.341,5.676c-0.194,0.088-0.31,0.291-0.288,0.504   c0.021,0.213,0.179,0.389,0.384,0.438l4.937,1.166c-6.807,8.131-17.045,6.449-24.999,1.885l23.944-35.006   c4.102,1.537,8.214,3.662,8.263,3.688c0.222,0.113,0.495,0.047,0.64-0.156l1.064-1.504c0.161-0.227,0.107-0.539-0.119-0.697   l-7.247-5.133l1.126-1.646c3.85,1.365,8.304,0.113,10.814-3.363c3.053-4.225,2.102-10.148-2.121-13.203   c-4.22-3.053-10.14-2.1-13.191,2.125c-2.548,3.525-2.294,8.232,0.312,11.469l-1.185,1.615l-7.249-5.133   c-0.225-0.16-0.536-0.105-0.696,0.121l-1.066,1.504c-0.145,0.207-0.114,0.488,0.075,0.658c0.044,0.041,3.583,3.25,6.254,6.51   L29.597,65.302c-6.949-5.986-11.937-15.084-6.529-24.205l2.742,4.27c0.035,0.055,0.081,0.102,0.132,0.137   c0.114,0.082,0.263,0.113,0.407,0.08c0.208-0.051,0.361-0.229,0.38-0.441l1.255-13.523c0.033-0.355-0.384-0.648-0.707-0.5   l-12.34,5.674c-0.194,0.09-0.312,0.293-0.288,0.506c0.021,0.211,0.178,0.387,0.382,0.438l4.715,1.111   c-4.698,7.6-5.139,16.773-1.833,24.551l5.678,15.709c0.036,0.098,0.1,0.18,0.18,0.238c0.083,0.057,0.181,0.09,0.284,0.092   l17.712,0.184c0.148,0.002,0.295,0.002,0.443,0.004h0.104c0.002,0,0.004,0,0.004-0.002c7.913,0.043,15.728-3.406,20.99-9.932   l2.614,4.076c0.036,0.055,0.081,0.102,0.132,0.139c0.116,0.08,0.264,0.111,0.407,0.078C66.669,73.933,66.819,73.757,66.839,73.542z    M62.602,22.911c-1.44-1.551-1.641-3.955-0.356-5.734c1.461-2.023,4.294-2.48,6.315-1.02c2.021,1.465,2.479,4.301,1.018,6.322   c-1.27,1.756-3.57,2.326-5.478,1.492L62.602,22.911z"></path></g></svg></g></g><mask id="92b81691-d132-43d3-84a6-c764ccf0e686"><g fill="white"><svg xmlns="http://www.w3.org/2000/svg" viewBox="0 0 144 144" style="overflow: visible;" width="60" height="60" x="0" y="0" filtersec="colorsf5437863583"><g transform="scale(1, 1) skewX(0)"><path d="M72 0c39.765 0 72 32.235 72 72s-32.235 72-72 72S0 111.765 0 72 32.235 0 72 0zm0 7C36.101 7 7 36.101 7 72s29.101 65 65 65 65-29.101 65-65S107.899 7 72 7z" stroke-width="2" stroke-linejoin="round" stroke="white"></path></g><defs></defs></svg></g> <g fill="black" filter="url(#c451ae9a-6ddf-4ae9-b9eb-35b059c07229)"><svg xmlns="http://www.w3.org/2000/svg" xmlns:xlink="http://www.w3.org/1999/xlink" version="1.1" x="10" y="10" viewBox="14.645915031433105 10.380071640014648 60.7098274230957 69.24693298339844" enable-background="new 0 0 90 90" xml:space="preserve" width="40" height="40" class="image-svg-icon"><g><path d="M66.839,73.542l1.256-13.523c0.033-0.354-0.384-0.65-0.706-0.5l-12.341,5.676c-0.194,0.088-0.31,0.291-0.288,0.504   c0.021,0.213,0.179,0.389,0.384,0.438l4.937,1.166c-6.807,8.131-17.045,6.449-24.999,1.885l23.944-35.006   c4.102,1.537,8.214,3.662,8.263,3.688c0.222,0.113,0.495,0.047,0.64-0.156l1.064-1.504c0.161-0.227,0.107-0.539-0.119-0.697   l-7.247-5.133l1.126-1.646c3.85,1.365,8.304,0.113,10.814-3.363c3.053-4.225,2.102-10.148-2.121-13.203   c-4.22-3.053-10.14-2.1-13.191,2.125c-2.548,3.525-2.294,8.232,0.312,11.469l-1.185,1.615l-7.249-5.133   c-0.225-0.16-0.536-0.105-0.696,0.121l-1.066,1.504c-0.145,0.207-0.114,0.488,0.075,0.658c0.044,0.041,3.583,3.25,6.254,6.51   L29.597,65.302c-6.949-5.986-11.937-15.084-6.529-24.205l2.742,4.27c0.035,0.055,0.081,0.102,0.132,0.137   c0.114,0.082,0.263,0.113,0.407,0.08c0.208-0.051,0.361-0.229,0.38-0.441l1.255-13.523c0.033-0.355-0.384-0.648-0.707-0.5   l-12.34,5.674c-0.194,0.09-0.312,0.293-0.288,0.506c0.021,0.211,0.178,0.387,0.382,0.438l4.715,1.111   c-4.698,7.6-5.139,16.773-1.833,24.551l5.678,15.709c0.036,0.098,0.1,0.18,0.18,0.238c0.083,0.057,0.181,0.09,0.284,0.092   l17.712,0.184c0.148,0.002,0.295,0.002,0.443,0.004h0.104c0.002,0,0.004,0,0.004-0.002c7.913,0.043,15.728-3.406,20.99-9.932   l2.614,4.076c0.036,0.055,0.081,0.102,0.132,0.139c0.116,0.08,0.264,0.111,0.407,0.078C66.669,73.933,66.819,73.757,66.839,73.542z    M62.602,22.911c-1.44-1.551-1.641-3.955-0.356-5.734c1.461-2.023,4.294-2.48,6.315-1.02c2.021,1.465,2.479,4.301,1.018,6.322   c-1.27,1.756-3.57,2.326-5.478,1.492L62.602,22.911z"></path></g></svg></g><defs><filter id="c451ae9a-6ddf-4ae9-b9eb-35b059c07229"><feGaussianBlur in="SourceGraphic" stdDeviation="1.26"></feGaussianBlur><feComponentTransfer><feFuncA type="discrete" tableValues="0 1 1 1 1 1 1 1 1 1 1 1 1 1 0"></feFuncA></feComponentTransfer></filter></defs></mask><mask id="6a901e6f-75c3-4892-b676-2c366f97b670"><g mask="url(#92b81691-d132-43d3-84a6-c764ccf0e686)" fill="white"><svg xmlns="http://www.w3.org/2000/svg" viewBox="0 0 144 144" style="overflow: visible;" width="60" height="60" x="0" y="0" filtersec="colorsf5437863583"><g transform="scale(1, 1) skewX(0)"><path d="M72 0c39.765 0 72 32.235 72 72s-32.235 72-72 72S0 111.765 0 72 32.235 0 72 0zm0 7C36.101 7 7 36.101 7 72s29.101 65 65 65 65-29.101 65-65S107.899 7 72 7z" stroke-width="2" stroke-linejoin="round" stroke="white"></path></g><defs></defs></svg></g> <g fill="black" filter="url(#ff2272cf-f215-43b9-94b8-139138ea6a8c)"><svg xmlns="http://www.w3.org/2000/svg" xmlns:xlink="http://www.w3.org/1999/xlink" version="1.1" x="10" y="10" viewBox="14.645915031433105 10.380071640014648 60.7098274230957 69.24693298339844" enable-background="new 0 0 90 90" xml:space="preserve" width="40" height="40" class="image-svg-icon"><g><path d="M66.839,73.542l1.256-13.523c0.033-0.354-0.384-0.65-0.706-0.5l-12.341,5.676c-0.194,0.088-0.31,0.291-0.288,0.504   c0.021,0.213,0.179,0.389,0.384,0.438l4.937,1.166c-6.807,8.131-17.045,6.449-24.999,1.885l23.944-35.006   c4.102,1.537,8.214,3.662,8.263,3.688c0.222,0.113,0.495,0.047,0.64-0.156l1.064-1.504c0.161-0.227,0.107-0.539-0.119-0.697   l-7.247-5.133l1.126-1.646c3.85,1.365,8.304,0.113,10.814-3.363c3.053-4.225,2.102-10.148-2.121-13.203   c-4.22-3.053-10.14-2.1-13.191,2.125c-2.548,3.525-2.294,8.232,0.312,11.469l-1.185,1.615l-7.249-5.133   c-0.225-0.16-0.536-0.105-0.696,0.121l-1.066,1.504c-0.145,0.207-0.114,0.488,0.075,0.658c0.044,0.041,3.583,3.25,6.254,6.51   L29.597,65.302c-6.949-5.986-11.937-15.084-6.529-24.205l2.742,4.27c0.035,0.055,0.081,0.102,0.132,0.137   c0.114,0.082,0.263,0.113,0.407,0.08c0.208-0.051,0.361-0.229,0.38-0.441l1.255-13.523c0.033-0.355-0.384-0.648-0.707-0.5   l-12.34,5.674c-0.194,0.09-0.312,0.293-0.288,0.506c0.021,0.211,0.178,0.387,0.382,0.438l4.715,1.111   c-4.698,7.6-5.139,16.773-1.833,24.551l5.678,15.709c0.036,0.098,0.1,0.18,0.18,0.238c0.083,0.057,0.181,0.09,0.284,0.092   l17.712,0.184c0.148,0.002,0.295,0.002,0.443,0.004h0.104c0.002,0,0.004,0,0.004-0.002c7.913,0.043,15.728-3.406,20.99-9.932   l2.614,4.076c0.036,0.055,0.081,0.102,0.132,0.139c0.116,0.08,0.264,0.111,0.407,0.078C66.669,73.933,66.819,73.757,66.839,73.542z    M62.602,22.911c-1.44-1.551-1.641-3.955-0.356-5.734c1.461-2.023,4.294-2.48,6.315-1.02c2.021,1.465,2.479,4.301,1.018,6.322   c-1.27,1.756-3.57,2.326-5.478,1.492L62.602,22.911z"></path></g></svg></g><defs><filter id="ff2272cf-f215-43b9-94b8-139138ea6a8c"><feGaussianBlur in="SourceGraphic" stdDeviation="1.26"></feGaussianBlur><feComponentTransfer><feFuncA type="discrete" tableValues="0 1 1 1 1 1 1 1 1 1 1 1 1 1 0"></feFuncA></feComponentTransfer></filter></defs></mask></svg> <defs><filter id="colors5933655053"><feColorMatrix type="matrix" values="0 0 0 0 0.11328125  0 0 0 0 0.4765625  0 0 0 0 0.97265625  0 0 0 1 0" class="icon-feColorMatrix "></feColorMatrix></filter> <filter id="colorsf5437863583"><feColorMatrix type="matrix" values="0 0 0 0 0.99609375  0 0 0 0 0.99609375  0 0 0 0 0.99609375  0 0 0 1 0" class="icon-fecolormatrix"></feColorMatrix></filter> <filter id="colorsb9779685617"><feColorMatrix type="matrix" values="0 0 0 0 0  0 0 0 0 0  0 0 0 0 0  0 0 0 1 0" class="icon-fecolormatrix"></feColorMatrix></filter></defs></g></g></g><g transform="translate(140, 1.7724279988178342)"><g fill="#142824" transform="scale(1)"><path d="M2.21 0L2.21-25.77L12.98-25.77Q17.25-25.77 19.57-23.67Q21.90-21.56 21.90-17.58L21.90-17.58Q21.90-14.75 20.50-12.75Q19.09-10.76 16.51-9.92L16.51-9.92L21.75 0L16.96 0L11.98-9.44L6.89-9.44L6.89 0L2.21 0ZM6.89-13.31L12.13-13.31Q14.41-13.31 15.81-14.38Q17.21-15.45 17.21-17.58L17.21-17.58Q17.21-21.90 12.13-21.90L12.13-21.90L6.89-21.90L6.89-13.31Z" transform="translate(-2.2117550686053655, 26.31988531640385)"></path></g></g><g transform="translate(163, 1.7724279988178342)"><g fill="#142824" transform="scale(1)"><path d="M9.66 0.55Q7.37 0.55 5.14 0.13Q2.91-0.29 1.47-1.00L1.47-1.00L1.47-5.01Q3.32-4.13 5.35-3.69Q7.37-3.24 9.33-3.24L9.33-3.24Q11.80-3.24 13.09-4.17Q14.38-5.09 14.38-6.71L14.38-6.71Q14.38-7.85 13.79-8.61Q13.20-9.36 12.05-9.93Q10.91-10.51 8.55-11.43L8.55-11.43Q4.94-12.90 3.32-14.71Q1.70-16.51 1.70-19.21L1.70-19.21Q1.70-21.31 2.84-22.93Q3.98-24.55 6.05-25.44Q8.11-26.32 10.80-26.32L10.80-26.32Q13.01-26.32 14.73-25.97Q16.44-25.62 18.10-24.88L18.10-24.88L18.10-20.97Q14.89-22.52 11.61-22.52L11.61-22.52Q9.25-22.52 7.96-21.66Q6.67-20.79 6.67-19.21L6.67-19.21Q6.67-18.06 7.26-17.34Q7.85-16.63 8.83-16.13Q9.81-15.63 12.35-14.56L12.35-14.56Q14.93-13.49 16.42-12.46Q17.92-11.43 18.67-10.05Q19.43-8.66 19.43-6.67L19.43-6.67Q19.43-3.24 16.96-1.35Q14.49 0.55 9.66 0.55L9.66 0.55Z" transform="translate(-1.4745033790702435, 26.31988531640385)"></path></g></g></g> <g fill-rule="" class="tp-slogan" fill="#1D7AF9" transform="translate(57.06740188598633,35.417680740356445)"> <g transform="scale(1, 1)"><g transform="scale(1.4200000000000004)"><path d="M1.08-7.87L1.08 0L5.74 0L5.74-0.85L2.08-0.85L2.08-3.71L5.06-3.71L5.06-4.56L2.08-4.56L2.08-7.03L5.62-7.03L5.62-7.87ZM7.40-7.87L7.40 0L11.84 0L11.84-0.85L8.40-0.85L8.40-7.87ZM13.24-7.87L13.24 0L17.89 0L17.89-0.85L14.23-0.85L14.23-3.71L17.22-3.71L17.22-4.56L14.23-4.56L14.23-7.03L17.77-7.03L17.77-7.87ZM19.10-3.94C19.10-3.30 19.19-2.72 19.36-2.21C19.53-1.71 19.77-1.28 20.08-0.93C20.39-0.58 20.75-0.32 21.17-0.13C21.59 0.05 22.05 0.14 22.55 0.14C23.05 0.14 23.50 0.04 23.89-0.16C24.28-0.36 24.64-0.64 24.95-1.00L24.38-1.61C24.13-1.33 23.86-1.11 23.57-0.96C23.29-0.81 22.96-0.73 22.57-0.73C22.20-0.73 21.86-0.81 21.56-0.96C21.26-1.11 21.00-1.33 20.80-1.61C20.59-1.89 20.43-2.23 20.31-2.62C20.19-3.02 20.14-3.46 20.14-3.96C20.14-4.45 20.20-4.89 20.32-5.28C20.44-5.67 20.60-6.01 20.82-6.28C21.04-6.56 21.30-6.77 21.60-6.92C21.90-7.07 22.24-7.14 22.62-7.14C22.96-7.14 23.25-7.07 23.50-6.94C23.75-6.81 23.98-6.63 24.19-6.41L24.76-7.04C24.52-7.30 24.23-7.53 23.87-7.72C23.51-7.92 23.09-8.02 22.61-8.02C22.10-8.02 21.64-7.92 21.21-7.73C20.78-7.55 20.41-7.28 20.10-6.92C19.79-6.57 19.54-6.14 19.37-5.64C19.19-5.14 19.10-4.57 19.10-3.94ZM27.83-7.03L27.83 0L28.84 0L28.84-7.03L31.21-7.03L31.21-7.87L25.45-7.87L25.45-7.03ZM33.62-4.14L33.62-7.07L34.94-7.07C35.56-7.07 36.03-6.96 36.36-6.76C36.69-6.55 36.85-6.18 36.85-5.66C36.85-5.15 36.69-4.77 36.36-4.52C36.03-4.27 35.56-4.14 34.94-4.14ZM36.95 0L38.08 0L36.08-3.43C36.62-3.57 37.05-3.82 37.37-4.19C37.69-4.56 37.85-5.05 37.85-5.66C37.85-6.07 37.78-6.42 37.64-6.70C37.51-6.98 37.32-7.20 37.07-7.38C36.83-7.56 36.54-7.68 36.20-7.76C35.86-7.83 35.49-7.87 35.09-7.87L32.63-7.87L32.63 0L33.62 0L33.62-3.32L35.05-3.32ZM39.60-7.87L39.60 0L40.60 0L40.60-7.87ZM42.30-3.94C42.30-3.30 42.39-2.72 42.56-2.21C42.73-1.71 42.97-1.28 43.28-0.93C43.59-0.58 43.95-0.32 44.37-0.13C44.79 0.05 45.25 0.14 45.74 0.14C46.25 0.14 46.70 0.04 47.09-0.16C47.48-0.36 47.83-0.64 48.14-1.00L47.58-1.61C47.32-1.33 47.05-1.11 46.77-0.96C46.49-0.81 46.15-0.73 45.77-0.73C45.39-0.73 45.05-0.81 44.75-0.96C44.45-1.11 44.20-1.33 43.99-1.61C43.78-1.89 43.62-2.23 43.51-2.62C43.39-3.02 43.33-3.46 43.33-3.96C43.33-4.45 43.39-4.89 43.51-5.28C43.63-5.67 43.80-6.01 44.02-6.28C44.23-6.56 44.49-6.77 44.80-6.92C45.10-7.07 45.44-7.14 45.82-7.14C46.15-7.14 46.45-7.07 46.70-6.94C46.95-6.81 47.18-6.63 47.39-6.41L47.95-7.04C47.72-7.30 47.42-7.53 47.06-7.72C46.70-7.92 46.28-8.02 45.80-8.02C45.30-8.02 44.83-7.92 44.41-7.73C43.98-7.55 43.61-7.28 43.30-6.92C42.98-6.57 42.74-6.14 42.56-5.64C42.39-5.14 42.30-4.57 42.30-3.94Z" transform="translate(-1.08, 8.016)"></path></g></g></g></g><defs v-gra="od"></defs></g></svg>